<?xml version="1.0" standalone="no"?>
<!DOCTYPE svg PUBLIC "-//W3C//DTD SVG 20010904//EN"
 "http://www.w3.org/TR/2001/REC-SVG-20010904/DTD/svg10.dtd">
<svg version="1.0" xmlns="http://www.w3.org/2000/svg"
 width="1181.000000pt" height="231.000000pt" viewBox="0 0 1181.000000 231.000000"
 preserveAspectRatio="xMidYMid meet">

	<g transform="translate(0.000000,231.000000) scale(0.100000,-0.100000)"
fill="#000000" stroke="none">
		<path style="fill:#E2001A;" d="M3405 2216 c-251 -49 -395 -185 -451 -426 -14 -64 -17 -149 -21 -589
-3 -335 -1 -554 6 -628 25 -256 116 -412 289 -494 208 -100 583 -84 793 34 82
45 168 137 208 220 46 97 61 192 61 387 l0 170 -250 0 -250 0 0 -145 c0 -79
-5 -167 -11 -194 -22 -103 -82 -155 -180 -154 -75 1 -117 25 -147 83 l-23 45
3 600 c3 583 4 601 24 640 40 78 162 111 235 62 19 -12 45 -44 59 -72 22 -44
25 -65 28 -182 l4 -133 249 0 249 0 0 140 c0 166 -17 264 -63 359 -62 128
-193 225 -357 266 -90 23 -361 29 -455 11z"/>
		<path style="fill:#E2001A;" d="M8058 2210 c-189 -40 -331 -143 -400 -290 -64 -134 -63 -126 -63
-775 0 -532 2 -598 18 -675 40 -184 130 -311 271 -380 114 -56 200 -73 381
-73 388 -2 575 125 652 442 24 99 31 1183 9 1304 -45 238 -204 397 -449 448
-120 25 -300 24 -419 -1z m275 -374 c47 -19 84 -67 96 -126 15 -69 15 -1090 0
-1159 -21 -97 -77 -153 -156 -154 -71 -1 -111 26 -148 98 l-30 59 -3 544 c-3
574 0 622 41 684 41 61 127 85 200 54z"/>
		<path style="fill:#E2001A;" d="M0 1120 l0 -1062 428 5 c396 4 433 6 511 26 219 56 348 186 395 398
18 82 22 291 6 373 -23 121 -83 207 -195 280 -36 23 -65 44 -65 46 0 2 13 10
29 18 50 26 119 104 154 175 44 89 62 187 54 308 -17 252 -140 400 -388 464
-78 21 -112 23 -506 26 l-423 5 0 -1062z m680 669 c63 -13 116 -57 130 -107
13 -49 13 -142 -1 -198 -23 -89 -74 -119 -226 -130 l-83 -7 0 227 0 226 65 0
c35 0 87 -5 115 -11z m35 -844 c57 -16 106 -61 124 -114 14 -43 14 -204 0
-256 -14 -50 -64 -100 -114 -114 -22 -6 -82 -11 -132 -11 l-93 0 0 260 0 259
83 -5 c45 -3 105 -12 132 -19z"/>
		<path style="fill:#E2001A;" d="M1560 1120 l0 -1060 585 0 585 0 0 215 0 215 -335 0 -335 0 0 225 0
225 310 0 310 0 0 215 0 215 -310 0 -310 0 0 195 0 195 320 0 320 0 0 210 0
210 -570 0 -570 0 0 -1060z"/>
		<path style="fill:#E2001A;" d="M4500 1120 l0 -1060 250 0 250 0 0 266 0 267 52 98 c29 54 55 95 59
91 5 -6 92 -235 241 -640 l31 -82 264 0 c208 0 264 3 260 13 -3 6 -111 273
-241 593 l-237 580 225 465 226 464 -252 3 c-138 1 -255 -1 -259 -5 -3 -5 -87
-193 -185 -420 l-179 -412 -3 419 -2 420 -250 0 -250 0 0 -1060z"/>
		<path style="fill:#E2001A;" d="M6040 1120 l0 -1060 250 0 250 0 0 440 0 440 175 0 175 0 0 -440 0
-440 245 0 245 0 0 1060 0 1060 -245 0 -245 0 0 -405 0 -405 -175 0 -175 0 0
405 0 405 -250 0 -250 0 0 -1060z"/>
		<path style="fill:#E2001A;" d="M9170 1120 l0 -1060 245 0 245 0 0 450 0 450 315 0 315 0 0 210 0
210 -315 0 -315 0 2 188 3 187 338 0 337 0 0 213 0 212 -585 0 -585 0 0 -1060z"/>
		<path style="fill:#E2001A;" d="M10560 1120 l0 -1060 250 0 250 0 0 450 0 450 310 0 310 0 0 210 0
210 -310 0 -310 0 0 190 0 190 335 0 335 0 0 210 0 210 -585 0 -585 0 0 -1060z"/>
	</g>
</svg>
