<?xml version="1.0"?>
<svg width="512" height="512" xmlns="http://www.w3.org/2000/svg" xmlns:svg="http://www.w3.org/2000/svg" version="1.1" xml:space="preserve">
 <g class="layer">
  <title>Layer 1</title>
  <g id="svg_1">
   <g id="svg_2">
    <path d="m503.65,81.39l-218.27,0l0,-11.99c0,-4.61 -3.74,-8.35 -8.35,-8.35l-41.06,0c-4.61,0 -8.35,3.74 -8.35,8.35l0,11.99l-127.64,0c-4.61,0 -8.35,3.73 -8.35,8.35c0,4.61 3.74,8.34 8.35,8.34l127.65,0l0,10.71l-77.96,0l-106.13,0c-4.61,0 -8.35,3.73 -8.35,8.35l0,138.86l0,137.72c0,4.61 3.74,8.35 8.35,8.35l106.13,0l77.95,0l0,10.7l-210.92,0l0,-314.69l26.85,0c4.61,0 8.35,-3.74 8.35,-8.35s-3.74,-8.34 -8.35,-8.34l-35.2,0c-4.61,0 -8.35,3.73 -8.35,8.34l0,331.39c0,4.61 3.74,8.35 8.35,8.35l219.27,0l0,13.13c0,4.61 3.74,8.35 8.35,8.35l41.06,0c4.61,0 8.35,-3.74 8.35,-8.35l0,-13.13l130.94,0c4.61,0 8.35,-3.74 8.35,-8.35s-3.74,-8.35 -8.35,-8.35l-130.94,0l0,-10.7l76.54,0l106.13,0c4.61,0 8.35,-3.74 8.35,-8.35l0,-137.72l0,-138.87c0,-4.61 -3.74,-8.34 -8.35,-8.34l-106.13,0l-76.54,0l0,-10.71l209.92,0l0,314.69l-27.24,0c-4.62,0 -8.35,3.74 -8.35,8.35s3.73,8.35 8.35,8.35l35.59,0c4.61,0 8.35,-3.74 8.35,-8.35l0,-331.39c0,-4.61 -3.74,-8.34 -8.35,-8.34zm-362.33,303.98l-89.43,0l0,-121.02l89.43,0l0,121.02zm0,-137.72l-89.43,0l0,-122.17l89.43,0l0,122.17zm86.3,137.72l-69.61,0l0,-129.37l0,-130.52l69.61,0l0,259.89zm41.06,-295.63l0,27.4l0,276.58l0,27.4l0,13.13l-24.36,0l0,-13.13l0,-27.4l0,-276.59l0,-27.4l0,-11.98l24.37,0l0,11.98l-0.01,0.01zm101.59,35.74l89.43,0l0,122.17l-89.43,0l0,-122.17zm0,138.87l89.43,0l0,121.02l-89.43,0l0,-121.02zm-16.7,-138.87l0,130.52l0,129.37l-68.19,0l0,-259.89l68.19,0z" fill="#ffffff" id="svg_3"/>
   </g>
  </g>
 </g>
</svg>