<svg id="Inhalt" xmlns="http://www.w3.org/2000/svg" viewBox="0 0 80 80"><defs><style>.cls-1{fill:none;stroke:#4794da;stroke-linecap:round;stroke-linejoin:round;stroke-width:2px;}</style></defs><title>icons_presence-detector_normal</title><path class="cls-1" d="M46,48a6.52,6.52,0,0,1-6.5-6.6V38.29l2.83-2,1.11,3.59,9.06-1.58v3.16A6.52,6.52,0,0,1,46,48Z"/><path class="cls-1" d="M53.54,38.19a7.71,7.71,0,1,0-15.43,0"/><path class="cls-1" d="M30.48,61.62c0-3,0-12.63,8.79-12.63h0s1.93,2.73,6.6,2.73A8.85,8.85,0,0,0,52.69,49"/><path class="cls-1" d="M61.49,61.62c0-3,0-12.63-8.79-12.63"/><path class="cls-1" d="M34.27,18.38A15.76,15.76,0,0,1,18.51,34.13"/><path class="cls-1" d="M27.23,18.4a8.7,8.7,0,0,1-8.7,8.7"/><path class="cls-1" d="M20.95,18.38a2.43,2.43,0,0,1-2.43,2.43"/></svg>